<svg xmlns="http://www.w3.org/2000/svg" width="30" height="30"><defs><clipPath id="a"><path d="M17.857 13.333H2.143a2.072 2.072 0 01-2.143-2V2a2.072 2.072 0 012.143-2h15.714A2.072 2.072 0 0120 2v9.333a2.072 2.072 0 01-2.143 2z" transform="translate(21 403.6)" fill="#1299e8"/></clipPath></defs><g data-name="Group 154"><g data-name="Rectangle 172" fill="none" stroke="#e8f3ff"><rect width="30" height="30" rx="5" stroke="none"/><rect x=".5" y=".5" width="29" height="29" rx="4.5"/></g><g data-name="Mask Group 1" transform="translate(-16 -395.6)" clip-path="url(#a)"><g data-name="4305544"><path data-name="Path 14" d="M37.392 405.88l-14.486 2.075a.28.28 0 01-.115-.548l13.472-3.778a.841.841 0 011.038.608l.324 1.3a.281.281 0 01-.232.346z" fill="#b1e9ff"/><path data-name="Path 15" d="M37.393 405.88l-14.487 2.075a.28.28 0 01-.305-.187l13.182-1.888a.281.281 0 00.232-.346l-.324-1.3a.834.834 0 00-.216-.386l.791-.222a.841.841 0 011.038.608l.324 1.3a.281.281 0 01-.232.346z" fill="#1299e8"/><path data-name="Path 16" d="M37.392 405.88l-14.486 2.075a.28.28 0 01-.115-.547l4.142-1.162 10.494-1.5.2.789a.281.281 0 01-.232.346z" fill="#1299e8"/><path data-name="Path 17" d="M38.853 407.958H22.866a.28.28 0 01-.04-.558l15.144-2.166a.841.841 0 01.951.729l.21 1.68a.281.281 0 01-.278.315z" fill="#b1e9ff"/><path data-name="Path 18" d="M38.854 407.958h-1.718a.281.281 0 00.278-.315l-.21-1.68a.835.835 0 00-.323-.563c-.016-.013-.139.009 1.089-.166a.841.841 0 01.951.729l.21 1.68a.281.281 0 01-.277.315z" fill="#1299e8"/><path data-name="Path 19" d="M38.853 407.958H22.866a.28.28 0 01-.04-.558l3.942-.564H39.03l.1.807a.281.281 0 01-.277.315z" fill="#1299e8"/><path data-name="Path 20" d="M39.134 407.402H22.866a.842.842 0 00-.841.837v7.853a.842.842 0 00.841.841h16.268a.842.842 0 00.841-.841v-7.853a.842.842 0 00-.841-.841z" fill="#b1e9ff"/><g data-name="Group 160" fill="#1299e8"><path data-name="Path 21" d="M39.975 408.239v7.853a.843.843 0 01-.841.841h-1.683a.843.843 0 00.841-.841v-7.853a.843.843 0 00-.841-.841h1.683a.843.843 0 01.841.841z"/><path data-name="Path 23" d="M31 408.514a3.646 3.646 0 103.646 3.646A3.65 3.65 0 0031 408.514zm0 6.731a3.085 3.085 0 113.085-3.085A3.089 3.089 0 0131 415.25z"/><path data-name="Path 24" d="M38.573 409.36a.562.562 0 01-.561-.561.28.28 0 00-.28-.28h-3.647a.28.28 0 000 .561h3.4a1.126 1.126 0 00.806.806v4.558a1.126 1.126 0 00-.806.806h-3.4a.28.28 0 100 .561h3.646a.28.28 0 00.28-.28.562.562 0 01.561-.561.28.28 0 00.28-.28v-5.049a.28.28 0 00-.279-.281z"/><path data-name="Path 25" d="M27.915 415.25h-3.4a1.126 1.126 0 00-.806-.806v-4.558a1.126 1.126 0 00.806-.806h3.4a.28.28 0 000-.561h-3.646a.28.28 0 00-.28.28.562.562 0 01-.561.561.28.28 0 00-.28.28v5.048a.28.28 0 00.28.28.562.562 0 01.561.561.28.28 0 00.28.28h3.646a.28.28 0 000-.561z"/><path data-name="Path 26" d="M24.55 412.165a.841.841 0 10.841-.841.842.842 0 00-.841.841zm1.122 0a.28.28 0 11-.28-.28.281.281 0 01.28.28z"/><path data-name="Path 27" d="M37.451 412.165a.841.841 0 10-.841.841.842.842 0 00.841-.841zm-1.122 0a.28.28 0 11.28.28.281.281 0 01-.28-.28z"/><text data-name="৳" transform="translate(29.001 414.3)" font-size="5" font-family="KohinoorBangla-Semibold, Kohinoor Bangla" font-weight="600"><tspan x="0" y="0">৳</tspan></text></g></g></g></g></svg>