<svg data-name="Group 1292" xmlns="http://www.w3.org/2000/svg" width="30" height="30"><g data-name="Rectangle 172" fill="none" stroke="#e8f3ff"><rect width="30" height="30" rx="5" stroke="none"/><rect x=".5" y=".5" width="29" height="29" rx="4.5"/></g><g data-name="Group 658"><g data-name="Group" fill="#0066b3"><path d="M13.803 10.904h-1.468l.918-5.8h1.468z"/><path data-name="Vector" d="M11.1 5.104L9.7 9.09l-.166-.859-.495-2.605a.636.636 0 00-.697-.522H6.027l-.027.1a5.438 5.438 0 011.536.66l1.277 5.04h1.53l2.336-5.8zm11.551 5.8H24l-1.175-5.8h-1.182a.677.677 0 00-.677.433l-2.19 5.367h1.53l.306-.86h1.864zM21.035 8.85l.771-2.169.435 2.169zM18.891 6.5l.209-1.247A4.145 4.145 0 0017.78 5c-.729 0-2.46.327-2.46 1.919 0 1.5 2.031 1.516 2.031 2.3s-1.821.647-2.424.15l-.218 1.304a4.031 4.031 0 001.658.327c1 0 2.514-.533 2.514-1.984 0-1.507-2.049-1.647-2.049-2.3s1.429-.575 2.059-.216z"/></g><path data-name="Vector" d="M9.533 8.233l-.494-2.607a.636.636 0 00-.697-.522H6.027l-.027.1a5.64 5.64 0 012.181 1.122 4.529 4.529 0 011.352 1.907z" fill="#faa634"/></g><g data-name="Frame"><g data-name="Group"><path data-name="Vector" d="M15.277 23.463a4.529 4.529 0 002.917 1.037 4.187 4.187 0 004.352-4 4.19 4.19 0 00-4.353-4 4.529 4.529 0 00-2.917 1.037A3.868 3.868 0 0013.84 20.5a3.848 3.848 0 001.437 2.963z" fill="#fcb131"/><path data-name="Vector" d="M21.967 22.728a.129.129 0 01.135-.124.132.132 0 01.143.124.132.132 0 01-.142.13.129.129 0 01-.136-.13zm.135.1a.11.11 0 00.112-.1.105.105 0 00-.112-.1.1.1 0 00-.105.1.109.109 0 00.105.103zm-.015-.038h-.03v-.116h.052a.051.051 0 01.03.006c.016.007.016.014.016.024s-.008.031-.023.031l.035.055h-.042l-.015-.048h-.022v-.021h.03c.007 0 .007-.007.007-.017s0 0-.007-.01h-.03v.1z" fill="#fcb131"/><path data-name="Vector" d="M16.683 20.078a4.253 4.253 0 00-.075-.426h-2.662a3.9 3.9 0 01.12-.419h2.413a4.36 4.36 0 00-.18-.426h-2.045c.075-.144.157-.289.248-.426h1.541a3.578 3.578 0 00-.331-.419h-.879a4.219 4.219 0 01.443-.426 4.585 4.585 0 00-2.923-1.036A4.193 4.193 0 008 20.5a4.192 4.192 0 004.353 4 4.547 4.547 0 002.924-1.037 4 4 0 00.436-.419h-.88a4.779 4.779 0 01-.333-.425h1.544a3.164 3.164 0 00.256-.426h-2.046a4.288 4.288 0 01-.188-.419h2.413a4 4 0 00.127-.426 3.881 3.881 0 00.075-.426 3.816 3.816 0 00.019-.422 3.729 3.729 0 00-.017-.422z" fill="#ed1b2e"/><path data-name="Vector" d="M21.967 21.43a.13.13 0 01.135-.13.132.132 0 01.143.13.136.136 0 01-.143.13.135.135 0 01-.135-.13zm.135.1a.105.105 0 00.113-.1.105.105 0 00-.112-.1.1.1 0 00-.106.1.1.1 0 00.105.096zm-.015-.045h-.03v-.11h.083c.015.007.015.025.015.034a.036.036 0 01-.023.028l.035.047h-.042l-.015-.041h-.022v-.019h.015c.008 0 .015 0 .015-.007s.007-.008.007-.017a.007.007 0 00-.007 0c0-.012-.008 0-.015 0h-.015v.09z" fill="#fff"/><path data-name="Vector" d="M13.796 21.657a1.522 1.522 0 01-.353.055.33.33 0 01-.361-.363 1.2 1.2 0 01.015-.151l.03-.158.022-.13.203-1.126h.451l-.052.246h.286l-.068.412h-.287l-.12.673a.272.272 0 00-.007.069c0 .089.045.124.157.124a.96.96 0 00.143-.014zm1.457-.014a1.927 1.927 0 01-.485.062c-.511 0-.8-.247-.8-.735a.882.882 0 01.827-.982.576.576 0 01.632.6 1.753 1.753 0 01-.052.4h-.941a.168.168 0 00-.008.055c0 .192.142.289.413.289a1.221 1.221 0 00.488-.1zm-.277-.982v-.082a.2.2 0 00-.226-.213c-.15 0-.256.1-.3.295zm-4.788 1.016h-.466l.271-1.558-.615 1.558H9.06l-.037-1.551-.286 1.551h-.459l.369-2.025h.684l.015 1.249.458-1.249h.752zm1.135-.734a.446.446 0 00-.09-.008c-.271 0-.406.1-.406.247a.162.162 0 00.173.171c.225.002.315-.17.323-.41zm.375.735h-.406l.008-.171a.573.573 0 01-.5.2.431.431 0 01-.417-.456.682.682 0 01.037-.212c.075-.25.353-.412.782-.419.052 0 .135 0 .211.007a.332.332 0 00.015-.11c0-.11-.1-.144-.316-.144a1.379 1.379 0 00-.391.056l-.067.013-.03.007.067-.371a1.927 1.927 0 01.548-.089c.406 0 .624.171.624.487a1.414 1.414 0 01-.022.323l-.105.59-.015.1-.008.082-.007.055zm5.826-1.635a.964.964 0 01.421.11l.082-.44c-.045-.02-.06-.02-.12-.041l-.188-.048a1.011 1.011 0 00-.215-.02 1.016 1.016 0 00-.511.082 1.37 1.37 0 00-.281.218l-.06-.011-.481.311.022-.174h-.5l-.289 1.648h.473l.173-.887s.067-.124.1-.165a.287.287 0 01.263-.1h.037a2.023 2.023 0 00-.023.316.8.8 0 00.842.872 1.652 1.652 0 00.413-.055l.082-.467a.915.915 0 01-.4.11.436.436 0 01-.443-.498c.001-.445.25-.761.603-.761zm3.992-.391l-.105.577a.5.5 0 00-.428-.234.715.715 0 00-.624.378v-.007l-.301-.164.03-.172h-.5l-.289 1.648h.466l.158-.886s.12-.124.15-.165a.3.3 0 01.211-.1 1.377 1.377 0 00-.085.485c0 .412.233.687.579.687a.572.572 0 00.436-.185l-.015.165h.443l.357-2.027zm-.579 1.634c-.157 0-.241-.11-.241-.322 0-.322.15-.556.368-.556.165 0 .248.116.248.322.001.33-.149.556-.375.556zm-2.172-.344a.446.446 0 00-.091-.007c-.271 0-.406.1-.406.247a.162.162 0 00.173.171c.226.002.317-.165.324-.411zm.376.735h-.414l.015-.171a.573.573 0 01-.5.2.435.435 0 01-.432-.455c0-.391.323-.632.834-.632.052 0 .135 0 .2.007a.383.383 0 00.022-.11c0-.11-.1-.144-.323-.144a1.422 1.422 0 00-.388.056l-.06.013-.03.007.067-.371a1.927 1.927 0 01.549-.089c.406 0 .617.171.617.487a1.068 1.068 0 01-.024.323l-.1.591-.015.1-.014.083-.008.055v.048zm-6.459-1.297a2.49 2.49 0 01.353.028l.068-.385c-.136-.014-.316-.034-.422-.034-.526 0-.7.261-.7.563 0 .2.1.343.353.453.188.082.218.1.218.171 0 .1-.1.165-.278.165a1.353 1.353 0 01-.428-.069l-.051.379.007.007.09.014c.03.007.067.014.12.021.112.006.211.014.271.014.526 0 .744-.185.744-.55a.473.473 0 00-.353-.46c-.202-.082-.225-.096-.225-.171s.091-.146.233-.146z" fill="#003473"/><path data-name="Vector" d="M18.155 19.58l-.086.443a.975.975 0 00-.421-.11c-.353 0-.6.316-.6.762a.433.433 0 00.443.495.989.989 0 00.4-.1l-.082.46a1.7 1.7 0 01-.413.061.792.792 0 01-.827-.882 1.105 1.105 0 011.06-1.229 1.065 1.065 0 01.218.02l.188.041c.06.021.075.029.12.039zm-1.518.305h-.045c-.158 0-.248.069-.391.268l.045-.254h-.428l-.293 1.648h.473c.173-1.01.218-1.181.444-1.181h.03a1.628 1.628 0 01.18-.474zm-2.721 1.642a1.055 1.055 0 01-.338.055.332.332 0 01-.376-.364 1.1 1.1 0 01.015-.144l.03-.165.022-.13.204-1.127h.466l-.052.247h.24l-.06.4h-.24l-.125.692a.222.222 0 00-.008.069c0 .082.045.116.157.116a.34.34 0 00.125-.014zm-1.812-1.106a.484.484 0 00.353.46c.2.082.226.11.226.179 0 .1-.082.151-.271.151a1.53 1.53 0 01-.421-.061l-.067.377.022.007.078.014a.51.51 0 00.132.018 1.9 1.9 0 00.256.014c.5 0 .729-.171.729-.55a.457.457 0 00-.331-.464c-.203-.083-.226-.1-.226-.179s.082-.13.233-.13a3.193 3.193 0 01.338.02l.069-.377a3.031 3.031 0 00-.415-.034c-.524 0-.712.253-.705.555zm9.652 1.126h-.443l.023-.158a.586.586 0 01-.436.179c-.346 0-.572-.267-.572-.68 0-.549.353-1.016.767-1.016a.555.555 0 01.451.226l.106-.577h.466zm-.692-.385c.218 0 .368-.234.368-.556-.004-.212-.082-.322-.248-.322-.211 0-.368.226-.368.55q0 .328.248.328zm-5.705.351a1.664 1.664 0 01-.485.069c-.526 0-.8-.254-.8-.742a.885.885 0 01.819-.982.578.578 0 01.639.6 1.529 1.529 0 01-.06.412h-.932a.114.114 0 00-.008.048c0 .192.142.289.413.289a1.121 1.121 0 00.488-.1zm-.262-.982v-.082a.2.2 0 00-.223-.213c-.15 0-.256.1-.3.295zm-4.79 1.016h-.465l.271-1.559-.61 1.559H9.18l-.038-1.545-.285 1.545h-.436l.368-2.025h.677l.022 1.256.451-1.256h.737zm1.166-.735c-.045 0-.068-.007-.106-.007-.263 0-.4.089-.4.254a.151.151 0 00.165.165c.198 0 .334-.165.341-.412zm.346.735h-.391l.008-.172a.61.61 0 01-.5.2.414.414 0 01-.425-.447c0-.405.3-.638.827-.638.052 0 .12.007.2.014a.317.317 0 00.015-.1c0-.11-.082-.151-.3-.151a1.692 1.692 0 00-.396.038l-.067.021-.045.006.066-.371a2.07 2.07 0 01.564-.082c.406 0 .624.165.624.481a1.989 1.989 0 01-.037.33l-.105.583-.015.1-.008.082-.007.061zm7.096-.735c-.053 0-.076-.007-.106-.007-.27 0-.406.089-.406.254a.157.157 0 00.173.165c.188 0 .332-.165.339-.412zm.346.735h-.391l.008-.172a.61.61 0 01-.5.2.414.414 0 01-.425-.447c0-.405.3-.638.827-.638.053 0 .12.007.188.014a.4.4 0 00.022-.1c0-.11-.082-.151-.3-.151a1.756 1.756 0 00-.4.041l-.059.018-.045.006.067-.371a2.07 2.07 0 01.563-.082c.406 0 .617.165.617.481a1.369 1.369 0 01-.037.33l-.1.583-.015.1-.015.082-.008.061zm1.257-1.662h-.04c-.16 0-.248.069-.391.268l.045-.254h-.428l-.286 1.648h.466c.173-1.01.218-1.181.443-1.181h.031a1.628 1.628 0 01.18-.474z" fill="#fff"/></g></g></svg>